<svg width="354" height="351" viewBox="0 0 354 351" fill="none" xmlns="http://www.w3.org/2000/svg">
<rect x="120" y="126" width="100" height="100" rx="20" fill="#026EE8"/>
<path d="M186.861 62.5814L190.361 29.0814C232.802 27.3624 255.907 26.816 305.861 20.5814C333.253 16.2128 339.001 25.9255 329.861 73.0814L321.361 159.081L287.361 162.581V96.0814C285.103 77.1612 280.9 69.465 263.361 65.5814C247.003 62.6383 229.797 61.9975 186.861 62.5814Z" fill="#026EE8"/>
<path d="M167.031 288.001L163.531 321.501C121.09 323.22 97.9852 323.766 48.0312 330.001C20.639 334.369 14.8909 324.656 24.0312 277.501L32.5313 191.501L66.5313 188.001L66.5313 254.501C68.789 273.421 72.9916 281.117 90.5313 285.001C106.889 287.944 124.095 288.584 167.031 288.001Z" fill="#026EE8"/>
<path d="M176.861 62.0823V14.0823C103.092 14.7058 70.8117 10.4821 18.8609 0.0823473C-4.63636 -1.49014 -5.44649 19.1382 12.3609 89.5824C17.1391 123.935 18.082 142.896 18.8609 176.582C33.0876 175.333 41.9547 174.859 67.8609 176.582V103.082C69.6846 73.8015 80.5421 64.0411 122.361 62.0823H176.861Z" fill="#F0F6FF"/>
<path d="M177.031 288.082V336.082C250.8 335.458 283.08 339.682 335.031 350.082C358.528 351.654 359.339 331.026 341.531 260.582C336.753 226.229 335.81 207.268 335.031 173.582C320.805 174.831 311.937 175.305 286.031 173.582V247.082C284.207 276.363 273.35 286.123 231.531 288.082H177.031Z" fill="#F0F6FF"/>
</svg>
